<?xml version="1.0" encoding="UTF-8"?><svg xmlns="http://www.w3.org/2000/svg" xmlns:xlink="http://www.w3.org/1999/xlink" fill-opacity="1" color-rendering="auto" color-interpolation="auto" text-rendering="auto" stroke="black" stroke-linecap="square" width="1043" stroke-miterlimit="10" shape-rendering="auto" stroke-opacity="1" fill="black" stroke-dasharray="none" font-weight="normal" stroke-width="1" height="727" font-family="'Dialog'" font-style="normal" stroke-linejoin="miter" font-size="12px" stroke-dashoffset="0" image-rendering="auto">
  <!--Generated by ySVG 2.5-->
  <defs id="genericDefs"/>
  <g>
    <defs id="defs1">
      <linearGradient x1="578.875" gradientUnits="userSpaceOnUse" x2="658.875" y1="224.8504" y2="264.8503" id="linearGradient1" spreadMethod="reflect">
        <stop stop-opacity="1" stop-color="rgb(232,238,247)" offset="0%"/>
        <stop stop-opacity="1" stop-color="rgb(183,201,227)" offset="100%"/>
      </linearGradient>
      <linearGradient x1="442.2917" gradientUnits="userSpaceOnUse" x2="522.2917" y1="469.8759" y2="509.8759" id="linearGradient2" spreadMethod="reflect">
        <stop stop-opacity="1" stop-color="rgb(232,238,247)" offset="0%"/>
        <stop stop-opacity="1" stop-color="rgb(183,201,227)" offset="100%"/>
      </linearGradient>
      <linearGradient x1="442.2917" gradientUnits="userSpaceOnUse" x2="522.2917" y1="551.5511" y2="591.5511" id="linearGradient3" spreadMethod="reflect">
        <stop stop-opacity="1" stop-color="rgb(232,238,247)" offset="0%"/>
        <stop stop-opacity="1" stop-color="rgb(183,201,227)" offset="100%"/>
      </linearGradient>
      <linearGradient x1="864.1749" gradientUnits="userSpaceOnUse" x2="944.1749" y1="437.8822" y2="477.8822" id="linearGradient4" spreadMethod="reflect">
        <stop stop-opacity="1" stop-color="rgb(232,238,247)" offset="0%"/>
        <stop stop-opacity="1" stop-color="rgb(183,201,227)" offset="100%"/>
      </linearGradient>
      <linearGradient x1="442.2917" gradientUnits="userSpaceOnUse" x2="522.2917" y1="33.3894" y2="73.3894" id="linearGradient5" spreadMethod="reflect">
        <stop stop-opacity="1" stop-color="rgb(232,238,247)" offset="0%"/>
        <stop stop-opacity="1" stop-color="rgb(183,201,227)" offset="100%"/>
      </linearGradient>
      <linearGradient x1="442.2917" gradientUnits="userSpaceOnUse" x2="522.2917" y1="388.2007" y2="428.2007" id="linearGradient6" spreadMethod="reflect">
        <stop stop-opacity="1" stop-color="rgb(232,238,247)" offset="0%"/>
        <stop stop-opacity="1" stop-color="rgb(183,201,227)" offset="100%"/>
      </linearGradient>
      <linearGradient x1="863.437" gradientUnits="userSpaceOnUse" x2="943.437" y1="689.4034" y2="729.4034" id="linearGradient7" spreadMethod="reflect">
        <stop stop-opacity="1" stop-color="rgb(232,238,247)" offset="0%"/>
        <stop stop-opacity="1" stop-color="rgb(183,201,227)" offset="100%"/>
      </linearGradient>
      <linearGradient x1="875.3356" gradientUnits="userSpaceOnUse" x2="955.3356" y1="139.8504" y2="179.8504" id="linearGradient8" spreadMethod="reflect">
        <stop stop-opacity="1" stop-color="rgb(232,238,247)" offset="0%"/>
        <stop stop-opacity="1" stop-color="rgb(183,201,227)" offset="100%"/>
      </linearGradient>
      <linearGradient x1="694.9467" gradientUnits="userSpaceOnUse" x2="774.9467" y1="139.8504" y2="179.8504" id="linearGradient9" spreadMethod="reflect">
        <stop stop-opacity="1" stop-color="rgb(232,238,247)" offset="0%"/>
        <stop stop-opacity="1" stop-color="rgb(183,201,227)" offset="100%"/>
      </linearGradient>
      <linearGradient x1="740.0439" gradientUnits="userSpaceOnUse" x2="820.0439" y1="199.957" y2="239.957" id="linearGradient10" spreadMethod="reflect">
        <stop stop-opacity="1" stop-color="rgb(232,238,247)" offset="0%"/>
        <stop stop-opacity="1" stop-color="rgb(183,201,227)" offset="100%"/>
      </linearGradient>
      <linearGradient x1="830.7869" gradientUnits="userSpaceOnUse" x2="954.7869" y1="199.957" y2="239.957" id="linearGradient11" spreadMethod="reflect">
        <stop stop-opacity="1" stop-color="rgb(232,238,247)" offset="0%"/>
        <stop stop-opacity="1" stop-color="rgb(183,201,227)" offset="100%"/>
      </linearGradient>
      <linearGradient x1="965.53" gradientUnits="userSpaceOnUse" x2="1045.53" y1="139.8504" y2="179.8504" id="linearGradient12" spreadMethod="reflect">
        <stop stop-opacity="1" stop-color="rgb(232,238,247)" offset="0%"/>
        <stop stop-opacity="1" stop-color="rgb(183,201,227)" offset="100%"/>
      </linearGradient>
      <linearGradient x1="965.53" gradientUnits="userSpaceOnUse" x2="1045.53" y1="199.957" y2="239.957" id="linearGradient13" spreadMethod="reflect">
        <stop stop-opacity="1" stop-color="rgb(232,238,247)" offset="0%"/>
        <stop stop-opacity="1" stop-color="rgb(183,201,227)" offset="100%"/>
      </linearGradient>
      <linearGradient x1="785.1411" gradientUnits="userSpaceOnUse" x2="865.1411" y1="139.8504" y2="179.8504" id="linearGradient14" spreadMethod="reflect">
        <stop stop-opacity="1" stop-color="rgb(232,238,247)" offset="0%"/>
        <stop stop-opacity="1" stop-color="rgb(183,201,227)" offset="100%"/>
      </linearGradient>
      <linearGradient x1="268" gradientUnits="userSpaceOnUse" x2="421" y1="139.8504" y2="179.8504" id="linearGradient15" spreadMethod="reflect">
        <stop stop-opacity="1" stop-color="rgb(232,238,247)" offset="0%"/>
        <stop stop-opacity="1" stop-color="rgb(183,201,227)" offset="100%"/>
      </linearGradient>
      <linearGradient x1="436.2917" gradientUnits="userSpaceOnUse" x2="528.2917" y1="139.8504" y2="179.8504" id="linearGradient16" spreadMethod="reflect">
        <stop stop-opacity="1" stop-color="rgb(232,238,247)" offset="0%"/>
        <stop stop-opacity="1" stop-color="rgb(183,201,227)" offset="100%"/>
      </linearGradient>
      <linearGradient x1="543.5833" gradientUnits="userSpaceOnUse" x2="643.5833" y1="139.8504" y2="179.8504" id="linearGradient17" spreadMethod="reflect">
        <stop stop-opacity="1" stop-color="rgb(232,238,247)" offset="0%"/>
        <stop stop-opacity="1" stop-color="rgb(183,201,227)" offset="100%"/>
      </linearGradient>
      <clipPath clipPathUnits="userSpaceOnUse" id="clipPath1">
        <path d="M0 0 L1043 0 L1043 727 L0 727 L0 0 Z"/>
      </clipPath>
      <clipPath clipPathUnits="userSpaceOnUse" id="clipPath2">
        <path d="M238 18 L1281 18 L1281 745 L238 745 L238 18 Z"/>
      </clipPath>
    </defs>
    <g fill="white" text-rendering="geometricPrecision" shape-rendering="geometricPrecision" transform="translate(-238,-18)" stroke="white">
      <rect x="238" width="1043" height="727" y="18" clip-path="url(#clipPath2)" stroke="none"/>
    </g>
    <g fill="yellow" text-rendering="geometricPrecision" shape-rendering="geometricPrecision" transform="matrix(1,0,0,1,-238,-18)" stroke="yellow">
      <path d="M482.2917 224.8504 L522.2917 244.8504 L482.2917 264.8503 L442.2917 244.8504 Z" stroke="none" clip-path="url(#clipPath2)"/>
    </g>
    <g text-rendering="geometricPrecision" stroke-miterlimit="1.45" shape-rendering="geometricPrecision" transform="matrix(1,0,0,1,-238,-18)" stroke-linecap="butt">
      <path fill="none" d="M482.2917 224.8504 L522.2917 244.8504 L482.2917 264.8503 L442.2917 244.8504 Z" clip-path="url(#clipPath2)"/>
      <text x="456.2262" xml:space="preserve" y="249.0047" clip-path="url(#clipPath2)" font-family="sans-serif" stroke="none">genbank</text>
    </g>
    <g fill="yellow" text-rendering="geometricPrecision" shape-rendering="geometricPrecision" transform="matrix(1,0,0,1,-238,-18)" stroke="yellow">
      <path d="M904.1749 519.5574 L944.1749 539.5574 L904.1749 559.5574 L864.1749 539.5574 Z" stroke="none" clip-path="url(#clipPath2)"/>
    </g>
    <g text-rendering="geometricPrecision" stroke-miterlimit="1.45" shape-rendering="geometricPrecision" transform="matrix(1,0,0,1,-238,-18)" stroke-linecap="butt">
      <path fill="none" d="M904.1749 519.5574 L944.1749 539.5574 L904.1749 559.5574 L864.1749 539.5574 Z" clip-path="url(#clipPath2)"/>
      <text x="899.8976" xml:space="preserve" y="543.7117" clip-path="url(#clipPath2)" font-family="sans-serif" stroke="none">-f</text>
    </g>
    <g fill="url(#linearGradient1)" text-rendering="geometricPrecision" shape-rendering="geometricPrecision" transform="matrix(1,0,0,1,-238,-18)" stroke="url(#linearGradient1)">
      <path d="M578.875 224.8504 L658.875 224.8504 L658.875 264.8503 L578.875 264.8503 Z" stroke="none" clip-path="url(#clipPath2)"/>
    </g>
    <g text-rendering="geometricPrecision" stroke-miterlimit="1.45" shape-rendering="geometricPrecision" transform="matrix(1,0,0,1,-238,-18)" stroke-linecap="butt">
      <path fill="none" d="M578.875 224.8504 L658.875 224.8504 L658.875 264.8503 L578.875 264.8503 Z" clip-path="url(#clipPath2)"/>
      <text x="595.1504" xml:space="preserve" y="249.0047" clip-path="url(#clipPath2)" font-family="sans-serif" stroke="none">Convert</text>
    </g>
    <g fill="url(#linearGradient2)" text-rendering="geometricPrecision" shape-rendering="geometricPrecision" transform="matrix(1,0,0,1,-238,-18)" stroke="url(#linearGradient2)">
      <path d="M442.2917 469.8759 L522.2917 469.8759 L522.2917 509.8759 L442.2917 509.8759 Z" stroke="none" clip-path="url(#clipPath2)"/>
    </g>
    <g text-rendering="geometricPrecision" stroke-miterlimit="1.45" shape-rendering="geometricPrecision" transform="matrix(1,0,0,1,-238,-18)" stroke-linecap="butt">
      <path fill="none" d="M442.2917 469.8759 L522.2917 469.8759 L522.2917 509.8759 L442.2917 509.8759 Z" clip-path="url(#clipPath2)"/>
      <text x="463.2545" xml:space="preserve" y="494.0302" clip-path="url(#clipPath2)" font-family="sans-serif" stroke="none">BLAST</text>
    </g>
    <g fill="url(#linearGradient3)" text-rendering="geometricPrecision" shape-rendering="geometricPrecision" transform="matrix(1,0,0,1,-238,-18)" stroke="url(#linearGradient3)">
      <path d="M442.2917 551.5511 L522.2917 551.5511 L522.2917 591.5511 L442.2917 591.5511 Z" stroke="none" clip-path="url(#clipPath2)"/>
    </g>
    <g text-rendering="geometricPrecision" stroke-miterlimit="1.45" shape-rendering="geometricPrecision" transform="matrix(1,0,0,1,-238,-18)" stroke-linecap="butt">
      <path fill="none" d="M442.2917 551.5511 L522.2917 551.5511 L522.2917 591.5511 L442.2917 591.5511 Z" clip-path="url(#clipPath2)"/>
      <text x="465.7126" xml:space="preserve" y="575.7054" clip-path="url(#clipPath2)" font-family="sans-serif" stroke="none">Parse</text>
    </g>
    <g fill="url(#linearGradient4)" text-rendering="geometricPrecision" shape-rendering="geometricPrecision" transform="matrix(1,0,0,1,-238,-18)" stroke="url(#linearGradient4)">
      <path d="M864.1749 437.8822 L944.1749 437.8822 L944.1749 477.8822 L864.1749 477.8822 Z" stroke="none" clip-path="url(#clipPath2)"/>
    </g>
    <g text-rendering="geometricPrecision" stroke-miterlimit="1.45" shape-rendering="geometricPrecision" transform="matrix(1,0,0,1,-238,-18)" stroke-linecap="butt">
      <path fill="none" d="M864.1749 437.8822 L944.1749 437.8822 L944.1749 477.8822 L864.1749 477.8822 Z" clip-path="url(#clipPath2)"/>
      <text x="883.3331" xml:space="preserve" y="462.0365" clip-path="url(#clipPath2)" font-family="sans-serif" stroke="none">Output</text>
    </g>
    <g fill="url(#linearGradient5)" text-rendering="geometricPrecision" shape-rendering="geometricPrecision" transform="matrix(1,0,0,1,-238,-18)" stroke="url(#linearGradient5)">
      <ellipse rx="40" ry="20" clip-path="url(#clipPath2)" cx="482.2917" cy="53.3894" stroke="none"/>
    </g>
    <g text-rendering="geometricPrecision" stroke-miterlimit="1.45" shape-rendering="geometricPrecision" transform="matrix(1,0,0,1,-238,-18)" stroke-linecap="butt">
      <ellipse rx="40" fill="none" ry="20" clip-path="url(#clipPath2)" cx="482.2917" cy="53.3894"/>
      <text x="467.6344" xml:space="preserve" y="57.5437" clip-path="url(#clipPath2)" font-family="sans-serif" stroke="none">Start</text>
    </g>
    <g fill="lime" text-rendering="geometricPrecision" shape-rendering="geometricPrecision" transform="matrix(1,0,0,1,-238,-18)" stroke="lime">
      <path d="M586.1628 610.0574 L713.6628 610.0574 Q703.6628 630.0574 713.6628 650.0574 L586.1628 650.0574 Q576.1628 630.0574 586.1628 610.0574 Z" stroke="none" clip-path="url(#clipPath2)"/>
    </g>
    <g text-rendering="geometricPrecision" stroke-miterlimit="1.45" shape-rendering="geometricPrecision" transform="matrix(1,0,0,1,-238,-18)" stroke-linecap="butt">
      <path fill="none" d="M586.1628 610.0574 L713.6628 610.0574 Q703.6628 630.0574 713.6628 650.0574 L586.1628 650.0574 Q576.1628 630.0574 586.1628 610.0574 Z" clip-path="url(#clipPath2)"/>
      <text x="588.7839" xml:space="preserve" y="634.2117" clip-path="url(#clipPath2)" font-family="sans-serif" stroke="none">query_filtered.fasta</text>
    </g>
    <g fill="rgb(153,204,0)" text-rendering="geometricPrecision" shape-rendering="geometricPrecision" transform="matrix(1,0,0,1,-238,-18)" stroke="rgb(153,204,0)">
      <path d="M728.6628 610.0574 L836.4249 610.0574 Q826.4249 630.0574 836.4249 650.0574 L728.6628 650.0574 Q718.6628 630.0574 728.6628 610.0574 Z" stroke="none" clip-path="url(#clipPath2)"/>
    </g>
    <g text-rendering="geometricPrecision" stroke-miterlimit="1.45" shape-rendering="geometricPrecision" transform="matrix(1,0,0,1,-238,-18)" stroke-linecap="butt">
      <path fill="none" d="M728.6628 610.0574 L836.4249 610.0574 Q826.4249 630.0574 836.4249 650.0574 L728.6628 650.0574 Q718.6628 630.0574 728.6628 610.0574 Z" clip-path="url(#clipPath2)"/>
      <text x="726.1259" xml:space="preserve" y="634.2117" clip-path="url(#clipPath2)" font-family="sans-serif" stroke="none">query_ref_id.fasta</text>
    </g>
    <g fill="rgb(153,204,0)" text-rendering="geometricPrecision" shape-rendering="geometricPrecision" transform="matrix(1,0,0,1,-238,-18)" stroke="rgb(153,204,0)">
      <path d="M846.437 610.0574 L965.437 610.0574 Q955.437 630.0574 965.437 650.0574 L846.437 650.0574 Q836.437 630.0574 846.437 610.0574 Z" stroke="none" clip-path="url(#clipPath2)"/>
    </g>
    <g text-rendering="geometricPrecision" stroke-miterlimit="1.45" shape-rendering="geometricPrecision" transform="matrix(1,0,0,1,-238,-18)" stroke-linecap="butt">
      <path fill="none" d="M846.437 610.0574 L965.437 610.0574 Q955.437 630.0574 965.437 650.0574 L846.437 650.0574 Q836.437 630.0574 846.437 610.0574 Z" clip-path="url(#clipPath2)"/>
      <text x="845.7017" xml:space="preserve" y="634.2117" clip-path="url(#clipPath2)" font-family="sans-serif" stroke="none">query_ref_id2.fasta</text>
    </g>
    <g fill="lime" text-rendering="geometricPrecision" shape-rendering="geometricPrecision" transform="matrix(1,0,0,1,-238,-18)" stroke="lime">
      <path d="M1000.437 610.0574 L1127.937 610.0574 Q1117.937 630.0574 1127.937 650.0574 L1000.437 650.0574 Q990.437 630.0574 1000.437 610.0574 Z" stroke="none" clip-path="url(#clipPath2)"/>
    </g>
    <g text-rendering="geometricPrecision" stroke-miterlimit="1.45" shape-rendering="geometricPrecision" transform="matrix(1,0,0,1,-238,-18)" stroke-linecap="butt">
      <path fill="none" d="M1000.437 610.0574 L1127.937 610.0574 Q1117.937 630.0574 1127.937 650.0574 L1000.437 650.0574 Q990.437 630.0574 1000.437 610.0574 Z" clip-path="url(#clipPath2)"/>
      <text x="1003.0581" xml:space="preserve" y="634.2117" clip-path="url(#clipPath2)" font-family="sans-serif" stroke="none">query_filtered.fasta</text>
    </g>
    <g fill="rgb(153,204,0)" text-rendering="geometricPrecision" shape-rendering="geometricPrecision" transform="matrix(1,0,0,1,-238,-18)" stroke="rgb(153,204,0)">
      <path d="M1146.0499 610.0574 L1265.0499 610.0574 Q1255.0499 630.0574 1265.0499 650.0574 L1146.0499 650.0574 Q1136.0499 630.0574 1146.0499 610.0574 Z" stroke="none" clip-path="url(#clipPath2)"/>
    </g>
    <g text-rendering="geometricPrecision" stroke-miterlimit="1.45" shape-rendering="geometricPrecision" transform="matrix(1,0,0,1,-238,-18)" stroke-linecap="butt">
      <path fill="none" d="M1146.0499 610.0574 L1265.0499 610.0574 Q1255.0499 630.0574 1265.0499 650.0574 L1146.0499 650.0574 Q1136.0499 630.0574 1146.0499 610.0574 Z" clip-path="url(#clipPath2)"/>
      <text x="1149.132" xml:space="preserve" y="634.2117" clip-path="url(#clipPath2)" font-family="sans-serif" stroke="none">query_ref_id.fasta</text>
    </g>
    <g fill="url(#linearGradient6)" text-rendering="geometricPrecision" shape-rendering="geometricPrecision" transform="matrix(1,0,0,1,-238,-18)" stroke="url(#linearGradient6)">
      <path d="M442.2917 388.2007 L522.2917 388.2007 L522.2917 428.2007 L442.2917 428.2007 Z" stroke="none" clip-path="url(#clipPath2)"/>
    </g>
    <g text-rendering="geometricPrecision" stroke-miterlimit="1.45" shape-rendering="geometricPrecision" transform="matrix(1,0,0,1,-238,-18)" stroke-linecap="butt">
      <path fill="none" d="M442.2917 388.2007 L522.2917 388.2007 L522.2917 428.2007 L442.2917 428.2007 Z" clip-path="url(#clipPath2)"/>
      <text x="443.3561" xml:space="preserve" y="412.355" clip-path="url(#clipPath2)" font-family="sans-serif" stroke="none">makeblastdb</text>
    </g>
    <g fill="yellow" text-rendering="geometricPrecision" shape-rendering="geometricPrecision" transform="matrix(1,0,0,1,-238,-18)" stroke="yellow">
      <path d="M904.1749 356.207 L954.1749 376.207 L904.1749 396.207 L854.1749 376.207 Z" stroke="none" clip-path="url(#clipPath2)"/>
    </g>
    <g text-rendering="geometricPrecision" stroke-miterlimit="1.45" shape-rendering="geometricPrecision" transform="matrix(1,0,0,1,-238,-18)" stroke-linecap="butt">
      <path fill="none" d="M904.1749 356.207 L954.1749 376.207 L904.1749 396.207 L854.1749 376.207 Z" clip-path="url(#clipPath2)"/>
      <text x="871.0841" xml:space="preserve" y="380.3613" clip-path="url(#clipPath2)" font-family="sans-serif" stroke="none">in gene.list</text>
    </g>
    <g fill="yellow" text-rendering="geometricPrecision" shape-rendering="geometricPrecision" transform="matrix(1,0,0,1,-238,-18)" stroke="yellow">
      <path d="M482.2917 306.5255 L548.5417 326.5255 L482.2917 346.5255 L416.0417 326.5255 Z" stroke="none" clip-path="url(#clipPath2)"/>
    </g>
    <g text-rendering="geometricPrecision" stroke-miterlimit="1.45" shape-rendering="geometricPrecision" transform="matrix(1,0,0,1,-238,-18)" stroke-linecap="butt">
      <path fill="none" d="M482.2917 306.5255 L548.5417 326.5255 L482.2917 346.5255 L416.0417 326.5255 Z" clip-path="url(#clipPath2)"/>
      <text x="430.8493" xml:space="preserve" y="330.6798" clip-path="url(#clipPath2)" font-family="sans-serif" stroke="none">length &gt; min_len</text>
    </g>
    <g fill="url(#linearGradient7)" text-rendering="geometricPrecision" shape-rendering="geometricPrecision" transform="matrix(1,0,0,1,-238,-18)" stroke="url(#linearGradient7)">
      <rect x="863.437" y="689.4034" clip-path="url(#clipPath2)" width="80" rx="20" ry="20" height="40" stroke="none"/>
    </g>
    <g text-rendering="geometricPrecision" stroke-miterlimit="1.45" shape-rendering="geometricPrecision" transform="matrix(1,0,0,1,-238,-18)" stroke-linecap="butt">
      <rect x="863.437" y="689.4034" clip-path="url(#clipPath2)" fill="none" width="80" rx="20" ry="20" height="40"/>
      <text x="892.0347" xml:space="preserve" y="713.5577" clip-path="url(#clipPath2)" font-family="sans-serif" stroke="none">End</text>
    </g>
    <g text-rendering="geometricPrecision" stroke-miterlimit="1.45" shape-rendering="geometricPrecision" transform="matrix(1,0,0,1,-238,-18)" stroke-linecap="butt">
      <path fill="none" d="M522.2729 244.8504 L570.8286 244.8504" clip-path="url(#clipPath2)"/>
    </g>
    <g text-rendering="geometricPrecision" stroke-miterlimit="1.45" shape-rendering="geometricPrecision" transform="matrix(1,0,0,1,-238,-18)" stroke-linecap="butt">
      <path d="M578.8286 244.8504 L566.8286 239.8504 L569.8286 244.8504 L566.8286 249.8504 Z" stroke="none" clip-path="url(#clipPath2)"/>
      <text x="540.1009" xml:space="preserve" y="219.0047" clip-path="url(#clipPath2)" font-family="sans-serif" stroke="none">Yes</text>
      <path fill="none" d="M482.2917 509.856 L482.2917 543.5785" clip-path="url(#clipPath2)"/>
      <path d="M482.2917 551.5785 L487.2917 539.5785 L482.2917 542.5785 L477.2917 539.5785 Z" clip-path="url(#clipPath2)" stroke="none"/>
      <path fill="none" d="M904.1749 477.8623 L904.1749 511.5848" clip-path="url(#clipPath2)"/>
      <path d="M904.1749 519.5848 L909.1749 507.5848 L904.1749 510.5848 L899.1749 507.5848 Z" clip-path="url(#clipPath2)" stroke="none"/>
      <path fill="none" d="M904.0124 559.4868 L903.6655 602.0374" clip-path="url(#clipPath2)"/>
      <path d="M903.6002 610.0371 L908.6979 598.0783 L903.6736 601.0374 L898.6982 597.9967 Z" clip-path="url(#clipPath2)" stroke="none"/>
      <text x="865.6458" xml:space="preserve" y="588.9617" clip-path="url(#clipPath2)" font-family="sans-serif" stroke="none">No</text>
      <path fill="none" d="M944.2067 539.5574 L1061.687 539.5574 L1061.687 602.0396" clip-path="url(#clipPath2)"/>
      <path d="M1061.687 610.0396 L1066.687 598.0396 L1061.687 601.0396 L1056.687 598.0396 Z" clip-path="url(#clipPath2)" stroke="none"/>
      <text x="1001.1898" xml:space="preserve" y="573.7117" clip-path="url(#clipPath2)" font-family="sans-serif" stroke="none">Yes</text>
      <path fill="none" d="M482.2917 428.1808 L482.2917 461.9033" clip-path="url(#clipPath2)"/>
      <path d="M482.2917 469.9033 L487.2917 457.9033 L482.2917 460.9033 L477.2917 457.9033 Z" clip-path="url(#clipPath2)" stroke="none"/>
      <path fill="none" d="M522.2691 571.5511 L786.9385 571.5511 L786.9385 376.207 L846.172 376.207" clip-path="url(#clipPath2)"/>
      <path d="M854.172 376.207 L842.172 371.207 L845.172 376.207 L842.172 381.207 Z" clip-path="url(#clipPath2)" stroke="none"/>
      <path fill="none" d="M904.1749 396.1871 L904.1749 429.9096" clip-path="url(#clipPath2)"/>
      <path d="M904.1749 437.9096 L909.1749 425.9096 L904.1749 428.9096 L899.1749 425.9096 Z" clip-path="url(#clipPath2)" stroke="none"/>
      <text x="863.6925" xml:space="preserve" y="421.1989" clip-path="url(#clipPath2)" font-family="sans-serif" stroke="none">Yes</text>
      <path fill="none" d="M482.2917 264.8305 L482.2917 298.5529" clip-path="url(#clipPath2)"/>
      <path d="M482.2917 306.5529 L487.2917 294.5529 L482.2917 297.5529 L477.2917 294.5529 Z" clip-path="url(#clipPath2)" stroke="none"/>
      <text x="444.1325" xml:space="preserve" y="282.989" clip-path="url(#clipPath2)" font-family="sans-serif" stroke="none">No</text>
      <path fill="none" d="M618.875 264.8216 L618.875 325.8426 L554.2817 325.8426" clip-path="url(#clipPath2)"/>
      <path d="M546.2817 325.8426 L558.2817 330.8426 L555.2817 325.8426 L558.2817 320.8426 Z" clip-path="url(#clipPath2)" stroke="none"/>
      <path fill="none" d="M482.2917 346.5056 L482.2917 380.2281" clip-path="url(#clipPath2)"/>
      <path d="M482.2917 388.2281 L487.2917 376.2281 L482.2917 379.2281 L477.2917 376.2281 Z" clip-path="url(#clipPath2)" stroke="none"/>
      <text x="441.8092" xml:space="preserve" y="371.5174" clip-path="url(#clipPath2)" font-family="sans-serif" stroke="none">Yes</text>
      <path fill="none" d="M903.437 650.0876 L903.437 681.3901" clip-path="url(#clipPath2)"/>
      <path d="M903.437 689.3901 L908.437 677.3901 L903.437 680.3901 L898.437 677.3901 Z" clip-path="url(#clipPath2)" stroke="none"/>
    </g>
    <g fill="rgb(153,204,255)" text-rendering="geometricPrecision" shape-rendering="geometricPrecision" transform="matrix(1,0,0,1,-238,-18)" stroke="rgb(153,204,255)">
      <rect x="679.9467" y="103.3894" clip-path="url(#clipPath2)" width="418.5117" rx="4" ry="4" height="151.5676" stroke="none"/>
      <rect x="679.9467" y="103.3894" clip-path="url(#clipPath2)" fill="rgb(235,235,235)" width="418.5117" height="21.4609" stroke="none"/>
    </g>
    <g font-size="15px" stroke-linecap="butt" transform="matrix(1,0,0,1,-238,-18)" text-rendering="geometricPrecision" font-family="sans-serif" shape-rendering="geometricPrecision" stroke-miterlimit="1.45">
      <text x="1033.038" xml:space="preserve" y="119.3128" clip-path="url(#clipPath2)" stroke="none">Optional</text>
      <rect x="679.9467" y="103.3894" clip-path="url(#clipPath2)" fill="none" width="418.5117" stroke-dasharray="6,2" rx="4" ry="4" height="151.5676"/>
    </g>
    <g fill="url(#linearGradient8)" text-rendering="geometricPrecision" shape-rendering="geometricPrecision" transform="matrix(1,0,0,1,-238,-18)" stroke="url(#linearGradient8)">
      <path d="M885.5356 139.8504 L955.3356 139.8504 L945.1356 179.8504 L875.3356 179.8504 Z" stroke="none" clip-path="url(#clipPath2)"/>
    </g>
    <g text-rendering="geometricPrecision" stroke-miterlimit="1.45" shape-rendering="geometricPrecision" transform="matrix(1,0,0,1,-238,-18)" stroke-linecap="butt">
      <path fill="none" d="M885.5356 139.8504 L955.3356 139.8504 L945.1356 179.8504 L875.3356 179.8504 Z" clip-path="url(#clipPath2)"/>
      <text x="894.0807" xml:space="preserve" y="164.0047" clip-path="url(#clipPath2)" font-family="sans-serif" stroke="none">-e 1e-5</text>
    </g>
    <g fill="url(#linearGradient9)" text-rendering="geometricPrecision" shape-rendering="geometricPrecision" transform="matrix(1,0,0,1,-238,-18)" stroke="url(#linearGradient9)">
      <path d="M705.1467 139.8504 L774.9467 139.8504 L764.7466 179.8504 L694.9467 179.8504 Z" stroke="none" clip-path="url(#clipPath2)"/>
    </g>
    <g text-rendering="geometricPrecision" stroke-miterlimit="1.45" shape-rendering="geometricPrecision" transform="matrix(1,0,0,1,-238,-18)" stroke-linecap="butt">
      <path fill="none" d="M705.1467 139.8504 L774.9467 139.8504 L764.7466 179.8504 L694.9467 179.8504 Z" clip-path="url(#clipPath2)"/>
      <text x="703.4935" xml:space="preserve" y="164.0047" clip-path="url(#clipPath2)" font-family="sans-serif" stroke="none">-l gene.list</text>
    </g>
    <g fill="url(#linearGradient10)" text-rendering="geometricPrecision" shape-rendering="geometricPrecision" transform="matrix(1,0,0,1,-238,-18)" stroke="url(#linearGradient10)">
      <path d="M750.2439 199.957 L820.0439 199.957 L809.8439 239.957 L740.0439 239.957 Z" stroke="none" clip-path="url(#clipPath2)"/>
    </g>
    <g text-rendering="geometricPrecision" stroke-miterlimit="1.45" shape-rendering="geometricPrecision" transform="matrix(1,0,0,1,-238,-18)" stroke-linecap="butt">
      <path fill="none" d="M750.2439 199.957 L820.0439 199.957 L809.8439 239.957 L740.0439 239.957 Z" clip-path="url(#clipPath2)"/>
      <text x="745.8339" xml:space="preserve" y="224.1113" clip-path="url(#clipPath2)" font-family="sans-serif" stroke="none">-o out_path</text>
    </g>
    <g fill="url(#linearGradient11)" text-rendering="geometricPrecision" shape-rendering="geometricPrecision" transform="matrix(1,0,0,1,-238,-18)" stroke="url(#linearGradient11)">
      <path d="M840.9869 199.957 L954.7869 199.957 L944.5869 239.957 L830.7869 239.957 Z" stroke="none" clip-path="url(#clipPath2)"/>
    </g>
    <g text-rendering="geometricPrecision" stroke-miterlimit="1.45" shape-rendering="geometricPrecision" transform="matrix(1,0,0,1,-238,-18)" stroke-linecap="butt">
      <path fill="none" d="M840.9869 199.957 L954.7869 199.957 L944.5869 239.957 L830.7869 239.957 Z" clip-path="url(#clipPath2)"/>
      <text x="840.1199" xml:space="preserve" y="224.1113" clip-path="url(#clipPath2)" font-family="sans-serif" stroke="none">-tmpdir tmp_path</text>
    </g>
    <g fill="url(#linearGradient12)" text-rendering="geometricPrecision" shape-rendering="geometricPrecision" transform="matrix(1,0,0,1,-238,-18)" stroke="url(#linearGradient12)">
      <path d="M975.73 139.8504 L1045.53 139.8504 L1035.33 179.8504 L965.53 179.8504 Z" stroke="none" clip-path="url(#clipPath2)"/>
    </g>
    <g text-rendering="geometricPrecision" stroke-miterlimit="1.45" shape-rendering="geometricPrecision" transform="matrix(1,0,0,1,-238,-18)" stroke-linecap="butt">
      <path fill="none" d="M975.73 139.8504 L1045.53 139.8504 L1035.33 179.8504 L965.53 179.8504 Z" clip-path="url(#clipPath2)"/>
      <text x="970.3474" xml:space="preserve" y="164.0047" clip-path="url(#clipPath2)" font-family="sans-serif" stroke="none">-min_len 10</text>
    </g>
    <g fill="url(#linearGradient13)" text-rendering="geometricPrecision" shape-rendering="geometricPrecision" transform="matrix(1,0,0,1,-238,-18)" stroke="url(#linearGradient13)">
      <path d="M975.73 199.957 L1045.53 199.957 L1035.33 239.957 L965.53 239.957 Z" stroke="none" clip-path="url(#clipPath2)"/>
    </g>
    <g text-rendering="geometricPrecision" stroke-miterlimit="1.45" shape-rendering="geometricPrecision" transform="matrix(1,0,0,1,-238,-18)" stroke-linecap="butt">
      <path fill="none" d="M975.73 199.957 L1045.53 199.957 L1035.33 239.957 L965.53 239.957 Z" clip-path="url(#clipPath2)"/>
      <text x="999.5623" xml:space="preserve" y="224.1113" clip-path="url(#clipPath2)" font-family="sans-serif" stroke="none">-h</text>
    </g>
    <g fill="url(#linearGradient14)" text-rendering="geometricPrecision" shape-rendering="geometricPrecision" transform="matrix(1,0,0,1,-238,-18)" stroke="url(#linearGradient14)">
      <path d="M795.3411 139.8504 L865.1411 139.8504 L854.9411 179.8504 L785.1411 179.8504 Z" stroke="none" clip-path="url(#clipPath2)"/>
    </g>
    <g text-rendering="geometricPrecision" stroke-miterlimit="1.45" shape-rendering="geometricPrecision" transform="matrix(1,0,0,1,-238,-18)" stroke-linecap="butt">
      <path fill="none" d="M795.3411 139.8504 L865.1411 139.8504 L854.9411 179.8504 L785.1411 179.8504 Z" clip-path="url(#clipPath2)"/>
      <text x="820.8638" xml:space="preserve" y="164.0047" clip-path="url(#clipPath2)" font-family="sans-serif" stroke="none">-f</text>
    </g>
    <g fill="rgb(0,204,255)" text-rendering="geometricPrecision" shape-rendering="geometricPrecision" transform="matrix(1,0,0,1,-238,-18)" stroke="rgb(0,204,255)">
      <rect x="253" y="103.3894" clip-path="url(#clipPath2)" width="405.5833" rx="4" ry="4" height="91.4609" stroke="none"/>
      <rect x="253" y="103.3894" clip-path="url(#clipPath2)" fill="rgb(235,235,235)" width="405.5833" height="21.4609" stroke="none"/>
    </g>
    <g font-size="15px" stroke-linecap="butt" transform="matrix(1,0,0,1,-238,-18)" text-rendering="geometricPrecision" font-family="sans-serif" shape-rendering="geometricPrecision" stroke-miterlimit="1.45">
      <text x="584.2859" xml:space="preserve" y="119.3128" clip-path="url(#clipPath2)" stroke="none">Positional</text>
      <rect x="253" y="103.3894" clip-path="url(#clipPath2)" fill="none" width="405.5833" stroke-dasharray="6,2" rx="4" ry="4" height="91.4609"/>
    </g>
    <g fill="url(#linearGradient15)" text-rendering="geometricPrecision" shape-rendering="geometricPrecision" transform="matrix(1,0,0,1,-238,-18)" stroke="url(#linearGradient15)">
      <path d="M278.2 139.8504 L421 139.8504 L410.8 179.8504 L268 179.8504 Z" stroke="none" clip-path="url(#clipPath2)"/>
    </g>
    <g text-rendering="geometricPrecision" stroke-miterlimit="1.45" shape-rendering="geometricPrecision" transform="matrix(1,0,0,1,-238,-18)" stroke-linecap="butt">
      <path fill="none" d="M278.2 139.8504 L421 139.8504 L410.8 179.8504 L268 179.8504 Z" clip-path="url(#clipPath2)"/>
      <text x="294.5635" xml:space="preserve" y="164.0047" clip-path="url(#clipPath2)" font-family="sans-serif" stroke="none">python3 filter.py</text>
    </g>
    <g fill="url(#linearGradient16)" text-rendering="geometricPrecision" shape-rendering="geometricPrecision" transform="matrix(1,0,0,1,-238,-18)" stroke="url(#linearGradient16)">
      <path d="M446.4917 139.8504 L528.2917 139.8504 L518.0917 179.8504 L436.2917 179.8504 Z" stroke="none" clip-path="url(#clipPath2)"/>
    </g>
    <g text-rendering="geometricPrecision" stroke-miterlimit="1.45" shape-rendering="geometricPrecision" transform="matrix(1,0,0,1,-238,-18)" stroke-linecap="butt">
      <path fill="none" d="M446.4917 139.8504 L528.2917 139.8504 L518.0917 179.8504 L436.2917 179.8504 Z" clip-path="url(#clipPath2)"/>
      <text x="446.8395" xml:space="preserve" y="164.0047" clip-path="url(#clipPath2)" font-family="sans-serif" stroke="none">-r reference</text>
    </g>
    <g fill="url(#linearGradient17)" text-rendering="geometricPrecision" shape-rendering="geometricPrecision" transform="matrix(1,0,0,1,-238,-18)" stroke="url(#linearGradient17)">
      <path d="M553.7833 139.8504 L643.5833 139.8504 L633.3834 179.8504 L543.5833 179.8504 Z" stroke="none" clip-path="url(#clipPath2)"/>
    </g>
    <g text-rendering="geometricPrecision" stroke-miterlimit="1.45" shape-rendering="geometricPrecision" transform="matrix(1,0,0,1,-238,-18)" stroke-linecap="butt">
      <path fill="none" d="M553.7833 139.8504 L643.5833 139.8504 L633.3834 179.8504 L543.5833 179.8504 Z" clip-path="url(#clipPath2)"/>
      <text x="551.5306" xml:space="preserve" y="164.0047" clip-path="url(#clipPath2)" font-family="sans-serif" stroke="none">-q query.fasta</text>
    </g>
    <g text-rendering="geometricPrecision" stroke-miterlimit="1.45" shape-rendering="geometricPrecision" transform="matrix(1,0,0,1,-238,-18)" stroke-linecap="butt">
      <path fill="none" d="M482.2917 73.3768 L482.2917 131.8787" clip-path="url(#clipPath2)"/>
      <path d="M482.2917 139.8787 L487.2917 127.8787 L482.2917 130.8787 L477.2917 127.8787 Z" clip-path="url(#clipPath2)" stroke="none"/>
      <path fill="none" d="M482.2917 179.8137 L482.2917 216.8757" clip-path="url(#clipPath2)"/>
      <path d="M482.2917 224.8757 L487.2917 212.8757 L482.2917 215.8757 L477.2917 212.8757 Z" clip-path="url(#clipPath2)" stroke="none"/>
    </g>
  </g>
</svg>
